<?xml version="1.0" encoding="UTF-8"?>
<svg xmlns="http://www.w3.org/2000/svg" xmlns:xlink="http://www.w3.org/1999/xlink" width="595.5pt" height="842.249979pt" viewBox="0 0 595.5 842.249979" version="1.2">
<defs>
<clipPath id="clip1">
  <path d="M 0.015625 713 L 594.984375 713 L 594.984375 841.5 L 0.015625 841.5 Z M 0.015625 713 "/>
</clipPath>
<filter id="alpha" filterUnits="objectBoundingBox" x="0%" y="0%" width="100%" height="100%">
  <feColorMatrix type="matrix" in="SourceGraphic" values="0 0 0 0 1 0 0 0 0 1 0 0 0 0 1 0 0 0 1 0"/>
</filter>
<mask id="mask0">
  <g filter="url(#alpha)">
<rect x="0" y="0" width="595.5" height="842.249979" style="fill:rgb(0%,0%,0%);fill-opacity:0.098;stroke:none;"/>
  </g>
</mask>
<clipPath id="clip3">
  <path d="M 0.015625 2 L 594.984375 2 L 594.984375 128.5 L 0.015625 128.5 Z M 0.015625 2 "/>
</clipPath>
<clipPath id="clip4">
  <path d="M 0.015625 1 L 594.984375 1 L 594.984375 128.5 L 0.015625 128.5 Z M 0.015625 1 "/>
</clipPath>
<clipPath id="clip2">
  <rect x="0" y="0" width="595" height="129"/>
</clipPath>
<g id="surface5" clip-path="url(#clip2)">
<g clip-path="url(#clip3)" clip-rule="nonzero">
<path style=" stroke:none;fill-rule:nonzero;fill:rgb(28.239441%,33.329773%,26.269531%);fill-opacity:1;" d="M 619.613281 549.777344 C 635.191406 576.207031 636.445312 610.148438 620.03125 638.664062 C 595.550781 680.8125 541.71875 695.136719 499.570312 670.796875 C 435.164062 632.960938 351.84375 643.394531 297.875 694.582031 C 245.015625 644.367188 163.363281 632.265625 96.875 670.378906 C 70.445312 685.957031 36.503906 687.210938 7.988281 670.796875 C -34.160156 646.453125 -48.488281 592.621094 -24.285156 550.472656 C 13.550781 486.070312 3.121094 402.75 -48.070312 348.777344 C 2.144531 295.917969 14.246094 214.265625 -23.867188 147.777344 C -39.445312 121.347656 -40.695312 87.40625 -24.285156 58.890625 C 0.0585938 16.746094 54.03125 2.277344 96.179688 26.621094 C 160.582031 64.457031 243.902344 54.023438 297.875 2.695312 C 352.402344 54.441406 434.332031 64.039062 499.570312 26.621094 C 541.71875 2.277344 595.6875 16.746094 620.03125 58.890625 C 636.445312 87.40625 635.191406 121.210938 619.613281 147.777344 C 581.640625 214.265625 593.601562 295.78125 643.816406 348.777344 C 593.601562 401.773438 581.5 483.289062 619.613281 549.777344 "/>
</g>
<g clip-path="url(#clip4)" clip-rule="nonzero">
<path style=" stroke:none;fill-rule:nonzero;fill:rgb(28.239441%,33.329773%,26.269531%);fill-opacity:1;" d="M 298.570312 696.527344 L 297.179688 696.527344 L 296.621094 695.972656 C 271.027344 671.628906 237.503906 655.773438 202.3125 651.183594 C 165.867188 646.453125 129.839844 653.6875 97.847656 671.910156 C 70.027344 688.324219 35.25 688.460938 7.292969 672.324219 C -35.691406 647.566406 -50.433594 592.34375 -25.675781 549.5 C -7.589844 518.757812 -0.078125 482.035156 -4.390625 445.871094 C -8.84375 409.980469 -24.839844 375.902344 -49.320312 350.03125 L -49.878906 349.472656 L -49.878906 348.082031 L -49.320312 347.527344 C -24.980469 321.929688 -9.121094 288.40625 -4.53125 253.214844 C 0.199219 216.769531 -7.035156 180.746094 -25.257812 148.75 C -41.671875 120.929688 -41.808594 86.15625 -25.675781 58.195312 C -13.710938 37.191406 5.625 22.308594 28.851562 16.1875 C 52.082031 9.929688 76.285156 13.128906 97.152344 25.230469 C 127.894531 43.3125 164.617188 50.824219 200.78125 46.511719 C 236.667969 42.0625 270.75 26.0625 296.621094 1.582031 L 297.179688 1.027344 L 298.570312 1.027344 L 299.125 1.582031 C 325.554688 26.761719 358.660156 42.199219 394.964844 46.511719 C 431.132812 50.824219 467.019531 43.453125 498.734375 25.230469 C 541.71875 0.46875 596.800781 15.214844 621.5625 58.195312 C 637.695312 86.15625 637.558594 120.929688 621.144531 148.890625 C 602.921875 180.882812 595.6875 216.910156 600.417969 253.355469 C 604.867188 288.546875 620.867188 322.070312 645.207031 347.664062 L 645.765625 348.222656 L 645.765625 349.613281 L 645.207031 350.167969 C 620.867188 375.761719 605.007812 409.285156 600.417969 444.480469 C 595.6875 480.921875 602.921875 516.949219 621.144531 548.945312 C 637.558594 576.902344 637.695312 611.539062 621.5625 639.636719 C 604.867188 668.429688 574.683594 684.566406 543.523438 684.566406 C 528.222656 684.566406 512.785156 680.671875 498.734375 672.464844 C 467.992188 654.382812 431.269531 646.871094 395.105469 651.183594 C 359.21875 655.496094 325.136719 671.492188 299.265625 696.113281 Z M 180.613281 646.3125 C 187.984375 646.3125 195.355469 646.730469 202.730469 647.703125 C 238.199219 652.296875 271.863281 668.011719 297.875 692.21875 C 324.164062 667.734375 358.382812 651.878906 394.546875 647.566406 C 431.410156 643.113281 469.105469 650.902344 500.402344 669.265625 C 541.578125 693.050781 594.574219 678.863281 618.363281 637.691406 C 633.941406 610.84375 633.800781 577.460938 617.945312 550.613281 C 599.304688 517.925781 591.933594 481.0625 596.800781 443.921875 C 601.390625 408.453125 617.109375 374.789062 641.3125 348.777344 C 617.109375 322.765625 601.253906 289.105469 596.800781 253.632812 C 592.070312 216.492188 599.304688 179.492188 617.945312 146.941406 C 633.664062 120.097656 633.800781 86.851562 618.363281 59.867188 C 594.574219 18.691406 541.578125 4.503906 500.402344 28.289062 C 468.132812 46.929688 431.410156 54.441406 394.546875 50.128906 C 358.105469 45.675781 324.71875 30.238281 297.875 5.339844 C 271.582031 29.820312 237.363281 45.675781 201.199219 49.988281 C 164.335938 54.441406 126.640625 46.789062 95.34375 28.289062 C 75.3125 16.746094 52.082031 13.683594 29.828125 19.664062 C 7.570312 25.648438 -11.070312 39.972656 -22.613281 59.867188 C -38.195312 86.710938 -38.054688 120.097656 -22.335938 146.804688 C -3.695312 179.492188 3.675781 216.355469 -1.054688 253.492188 C -5.644531 288.964844 -21.363281 322.625 -45.566406 348.640625 C -21.085938 374.929688 -5.226562 409.148438 -0.914062 445.3125 C 3.535156 482.175781 -4.113281 519.871094 -22.613281 551.167969 C -46.398438 592.34375 -32.210938 645.339844 8.960938 669.125 C 35.808594 684.707031 69.191406 684.566406 96.039062 668.710938 C 122.191406 653.964844 150.984375 646.3125 180.613281 646.3125 Z M 180.613281 646.3125 "/>
</g>
</g>
<clipPath id="clip5">
  <path d="M 0.015625 736 L 594.984375 736 L 594.984375 841.5 L 0.015625 841.5 Z M 0.015625 736 "/>
</clipPath>
<mask id="mask1">
  <g filter="url(#alpha)">
<rect x="0" y="0" width="595.5" height="842.249979" style="fill:rgb(0%,0%,0%);fill-opacity:0.2471;stroke:none;"/>
  </g>
</mask>
<clipPath id="clip7">
  <path d="M 0.015625 1 L 594.984375 1 L 594.984375 105.5 L 0.015625 105.5 Z M 0.015625 1 "/>
</clipPath>
<clipPath id="clip8">
  <path d="M 0.015625 0.144531 L 594.984375 0.144531 L 594.984375 105.5 L 0.015625 105.5 Z M 0.015625 0.144531 "/>
</clipPath>
<clipPath id="clip6">
  <rect x="0" y="0" width="595" height="106"/>
</clipPath>
<g id="surface8" clip-path="url(#clip6)">
<g clip-path="url(#clip7)" clip-rule="nonzero">
<path style=" stroke:none;fill-rule:nonzero;fill:rgb(28.239441%,33.329773%,26.269531%);fill-opacity:1;" d="M 619.140625 549.074219 C 634.722656 575.503906 635.972656 609.445312 619.558594 637.960938 C 595.078125 680.109375 541.246094 694.4375 499.097656 670.09375 C 434.695312 632.257812 351.371094 642.691406 297.402344 693.878906 C 244.542969 643.664062 162.890625 631.5625 96.402344 669.675781 C 69.972656 685.253906 36.03125 686.507812 7.515625 670.09375 C -34.632812 645.75 -48.957031 591.917969 -24.753906 549.769531 C 13.082031 485.367188 2.648438 402.046875 -48.542969 348.074219 C 1.675781 295.21875 13.777344 213.566406 -24.335938 147.074219 C -39.917969 120.644531 -41.167969 86.707031 -24.753906 58.191406 C -0.414062 16.042969 53.558594 1.574219 95.707031 25.917969 C 160.109375 63.753906 243.429688 53.320312 297.402344 1.992188 C 351.929688 53.738281 433.859375 63.335938 499.097656 25.917969 C 541.246094 1.574219 595.214844 16.042969 619.558594 58.191406 C 635.972656 86.707031 634.722656 120.507812 619.140625 147.074219 C 581.167969 213.566406 593.128906 295.078125 643.34375 348.074219 C 593.128906 401.074219 581.027344 482.585938 619.140625 549.074219 "/>
</g>
<g clip-path="url(#clip8)" clip-rule="nonzero">
<path style=" stroke:none;fill-rule:nonzero;fill:rgb(28.239441%,33.329773%,26.269531%);fill-opacity:1;" d="M 298.097656 695.828125 L 296.707031 695.828125 L 296.148438 695.269531 C 270.554688 670.929688 237.03125 655.070312 201.839844 650.480469 C 165.394531 645.75 129.367188 652.984375 97.375 671.207031 C 69.554688 687.621094 34.78125 687.757812 6.820312 671.625 C -36.160156 646.863281 -50.90625 591.640625 -26.144531 548.796875 C -8.0625 518.054688 -0.550781 481.332031 -4.863281 445.167969 C -9.316406 409.28125 -25.3125 375.199219 -49.792969 349.328125 L -50.347656 348.769531 L -50.347656 347.378906 L -49.792969 346.824219 C -25.449219 321.230469 -9.59375 287.707031 -5.003906 252.511719 C -0.273438 216.070312 -7.507812 180.042969 -25.730469 148.050781 C -42.144531 120.230469 -42.28125 85.453125 -26.144531 57.496094 C -14.183594 36.488281 5.152344 21.605469 28.382812 15.484375 C 51.609375 9.226562 75.816406 12.425781 96.679688 24.527344 C 127.421875 42.609375 164.144531 50.121094 200.308594 45.808594 C 236.199219 41.359375 270.277344 25.363281 296.148438 0.878906 L 296.707031 0.324219 L 298.097656 0.324219 L 298.652344 0.878906 C 325.082031 26.058594 358.1875 41.496094 394.496094 45.808594 C 430.660156 50.121094 466.546875 42.75 498.261719 24.527344 C 541.246094 -0.230469 596.328125 14.511719 621.089844 57.496094 C 637.226562 85.453125 637.085938 120.230469 620.671875 148.1875 C 602.449219 180.179688 595.214844 216.207031 599.945312 252.652344 C 604.398438 287.84375 620.394531 321.367188 644.734375 346.960938 L 645.292969 347.519531 L 645.292969 348.910156 L 644.734375 349.464844 C 620.394531 375.0625 604.535156 408.585938 599.945312 443.777344 C 595.214844 480.222656 602.449219 516.25 620.671875 548.242188 C 637.085938 576.199219 637.226562 610.835938 621.089844 638.933594 C 604.398438 667.730469 574.210938 683.863281 543.054688 683.863281 C 527.753906 683.863281 512.3125 679.96875 498.261719 671.761719 C 467.523438 653.679688 430.800781 646.167969 394.632812 650.480469 C 358.746094 654.792969 324.664062 670.789062 298.792969 695.410156 Z M 180.140625 645.613281 C 187.511719 645.613281 194.886719 646.027344 202.257812 647.003906 C 237.726562 651.59375 271.390625 667.3125 297.402344 691.515625 C 323.691406 667.03125 357.910156 651.175781 394.078125 646.863281 C 430.9375 642.414062 468.636719 650.203125 499.933594 668.5625 C 541.105469 692.347656 594.105469 678.160156 617.890625 636.988281 C 633.46875 610.140625 633.328125 576.757812 617.472656 549.910156 C 598.832031 517.222656 591.460938 480.359375 596.328125 443.21875 C 600.917969 407.75 616.636719 374.085938 640.839844 348.074219 C 616.636719 322.0625 600.78125 288.402344 596.328125 252.929688 C 591.601562 215.789062 598.832031 178.789062 617.472656 146.242188 C 633.191406 119.394531 633.328125 86.148438 617.890625 59.164062 C 594.105469 17.988281 541.105469 3.800781 499.933594 27.585938 C 467.660156 46.226562 430.9375 53.738281 394.078125 49.425781 C 357.632812 44.976562 324.25 29.535156 297.402344 4.636719 C 271.113281 29.117188 236.894531 44.976562 200.726562 49.289062 C 163.867188 53.738281 126.167969 46.089844 94.871094 27.585938 C 74.839844 16.042969 51.609375 12.980469 29.355469 18.964844 C 7.097656 24.945312 -11.539062 39.273438 -23.085938 59.164062 C -38.664062 86.011719 -38.527344 119.394531 -22.808594 146.101562 C -4.167969 178.789062 3.203125 215.652344 -1.523438 252.792969 C -6.117188 288.261719 -21.832031 321.925781 -46.039062 347.9375 C -21.554688 374.226562 -5.699219 408.445312 -1.386719 444.613281 C 3.066406 481.472656 -4.585938 519.167969 -23.085938 550.46875 C -46.871094 591.640625 -32.683594 644.636719 8.488281 668.425781 C 35.335938 684.003906 68.71875 683.863281 95.566406 668.007812 C 121.71875 653.261719 150.511719 645.613281 180.140625 645.613281 Z M 180.140625 645.613281 "/>
</g>
</g>
<clipPath id="clip9">
  <path d="M 0.015625 759 L 594.984375 759 L 594.984375 841.5 L 0.015625 841.5 Z M 0.015625 759 "/>
</clipPath>
<clipPath id="clip10">
  <path d="M 0.015625 758 L 594.984375 758 L 594.984375 841.5 L 0.015625 841.5 Z M 0.015625 758 "/>
</clipPath>
</defs>
<g id="surface1">
<g clip-path="url(#clip1)" clip-rule="nonzero">
<use xlink:href="#surface5" transform="matrix(1,0,0,1,-0.000000000000000002,713)" mask="url(#mask0)"/>
</g>
<g clip-path="url(#clip5)" clip-rule="nonzero">
<use xlink:href="#surface8" transform="matrix(1,0,0,1,-0.000000000000000002,736)" mask="url(#mask1)"/>
</g>
<g clip-path="url(#clip9)" clip-rule="nonzero">
<path style=" stroke:none;fill-rule:nonzero;fill:rgb(59.999084%,50.588989%,33.329773%);fill-opacity:1;" d="M 619.140625 1306.949219 C 634.722656 1333.378906 635.972656 1367.316406 619.558594 1395.832031 C 595.078125 1437.980469 541.246094 1452.308594 499.097656 1427.964844 C 434.695312 1390.128906 351.371094 1400.5625 297.402344 1451.753906 C 244.542969 1401.535156 162.890625 1389.433594 96.402344 1427.546875 C 69.972656 1443.128906 36.03125 1444.378906 7.515625 1427.964844 C -34.632812 1403.625 -48.957031 1349.792969 -24.753906 1307.644531 C 13.082031 1243.242188 2.648438 1159.917969 -48.542969 1105.949219 C 1.675781 1053.089844 13.777344 971.4375 -24.335938 904.949219 C -39.917969 878.519531 -41.167969 844.578125 -24.753906 816.0625 C -0.414062 773.914062 53.558594 759.449219 95.707031 783.789062 C 160.109375 821.625 243.429688 811.195312 297.402344 759.867188 C 351.929688 811.609375 433.859375 821.210938 499.097656 783.789062 C 541.246094 759.449219 595.214844 773.914062 619.558594 816.0625 C 635.972656 844.578125 634.722656 878.378906 619.140625 904.949219 C 581.167969 971.4375 593.128906 1052.949219 643.34375 1105.949219 C 593.128906 1158.945312 581.027344 1240.457031 619.140625 1306.949219 "/>
</g>
<g clip-path="url(#clip10)" clip-rule="nonzero">
<path style=" stroke:none;fill-rule:nonzero;fill:rgb(100%,100%,100%);fill-opacity:1;" d="M 298.097656 1453.699219 L 296.707031 1453.699219 L 296.148438 1453.144531 C 270.554688 1428.800781 237.03125 1412.941406 201.839844 1408.351562 C 165.394531 1403.625 129.367188 1410.855469 97.375 1429.078125 C 69.554688 1445.492188 34.78125 1445.632812 6.820312 1429.496094 C -36.160156 1404.734375 -50.90625 1349.511719 -26.144531 1306.671875 C -8.0625 1275.929688 -0.550781 1239.207031 -4.863281 1203.039062 C -9.316406 1167.152344 -25.3125 1133.074219 -49.792969 1107.199219 L -50.347656 1106.644531 L -50.347656 1105.253906 L -49.792969 1104.695312 C -25.449219 1079.101562 -9.59375 1045.578125 -5.003906 1010.386719 C -0.273438 973.941406 -7.507812 937.914062 -25.730469 905.921875 C -42.144531 878.101562 -42.28125 843.324219 -26.144531 815.367188 C -14.183594 794.363281 5.152344 779.480469 28.382812 773.359375 C 51.609375 767.097656 75.816406 770.296875 96.679688 782.398438 C 127.421875 800.484375 164.144531 807.996094 200.308594 803.683594 C 236.199219 799.230469 270.277344 783.234375 296.148438 758.753906 L 296.707031 758.195312 L 298.097656 758.195312 L 298.652344 758.753906 C 325.082031 783.929688 358.1875 799.371094 394.496094 803.683594 C 430.660156 807.996094 466.546875 800.621094 498.261719 782.398438 C 541.246094 757.640625 596.328125 772.382812 621.089844 815.367188 C 637.226562 843.324219 637.085938 878.101562 620.671875 906.058594 C 602.449219 938.054688 595.214844 974.082031 599.945312 1010.523438 C 604.398438 1045.71875 620.394531 1079.242188 644.734375 1104.835938 L 645.292969 1105.390625 L 645.292969 1106.78125 L 644.734375 1107.339844 C 620.394531 1132.933594 604.535156 1166.457031 599.945312 1201.648438 C 595.214844 1238.09375 602.449219 1274.121094 620.671875 1306.113281 C 637.085938 1334.074219 637.226562 1368.707031 621.089844 1396.808594 C 604.398438 1425.601562 574.210938 1441.738281 543.054688 1441.738281 C 527.753906 1441.738281 512.3125 1437.84375 498.261719 1429.636719 C 467.523438 1411.550781 430.800781 1404.039062 394.632812 1408.351562 C 358.746094 1412.664062 324.664062 1428.660156 298.792969 1453.28125 Z M 180.140625 1403.484375 C 187.511719 1403.484375 194.886719 1403.902344 202.257812 1404.875 C 237.726562 1409.464844 271.390625 1425.183594 297.402344 1449.386719 C 323.691406 1424.90625 357.910156 1409.046875 394.078125 1404.734375 C 430.9375 1400.285156 468.636719 1408.074219 499.933594 1426.4375 C 541.105469 1450.222656 594.105469 1436.035156 617.890625 1394.859375 C 633.46875 1368.011719 633.328125 1334.628906 617.472656 1307.78125 C 598.832031 1275.09375 591.460938 1238.234375 596.328125 1201.09375 C 600.917969 1165.621094 616.636719 1131.960938 640.839844 1105.949219 C 616.636719 1079.9375 600.78125 1046.273438 596.328125 1010.804688 C 591.601562 973.664062 598.832031 936.664062 617.472656 904.113281 C 633.191406 877.265625 633.328125 844.023438 617.890625 817.035156 C 594.105469 775.863281 541.105469 761.675781 499.933594 785.460938 C 467.660156 804.101562 430.9375 811.609375 394.078125 807.300781 C 357.632812 802.847656 324.25 787.40625 297.402344 762.507812 C 271.113281 786.992188 236.894531 802.847656 200.726562 807.160156 C 163.867188 811.609375 126.167969 803.960938 94.871094 785.460938 C 74.839844 773.914062 51.609375 770.855469 29.355469 776.835938 C 7.097656 782.816406 -11.539062 797.144531 -23.085938 817.035156 C -38.664062 843.882812 -38.527344 877.265625 -22.808594 903.972656 C -4.167969 936.664062 3.203125 973.523438 -1.523438 1010.664062 C -6.117188 1046.132812 -21.832031 1079.796875 -46.039062 1105.808594 C -21.554688 1132.097656 -5.699219 1166.316406 -1.386719 1202.484375 C 3.066406 1239.34375 -4.585938 1277.042969 -23.085938 1308.339844 C -46.871094 1349.511719 -32.683594 1402.511719 8.488281 1426.296875 C 35.335938 1441.875 68.71875 1441.738281 95.566406 1425.878906 C 121.71875 1411.132812 150.511719 1403.484375 180.140625 1403.484375 Z M 180.140625 1403.484375 "/>
</g>
<path style=" stroke:none;fill-rule:nonzero;fill:rgb(41.178894%,30.198669%,9.799194%);fill-opacity:1;" d="M 255.382812 790.449219 C 255.382812 790.449219 295.882812 707.164062 272.195312 652.347656 C 272.195312 652.347656 232.867188 591.859375 175.542969 623.417969 C 175.542969 623.417969 208.378906 595.289062 251.660156 623.398438 C 251.660156 623.398438 219.394531 580.625 177.035156 579.550781 C 177.035156 579.550781 218.574219 571.972656 271.34375 629.597656 C 271.34375 629.597656 268.597656 553.097656 212.925781 530.042969 C 212.925781 530.042969 251.882812 530.984375 272.59375 596.957031 C 272.59375 596.957031 261.722656 519.722656 190.730469 503.113281 C 190.730469 503.113281 214.1875 502.097656 238.65625 522.75 C 238.65625 522.75 220.289062 497.84375 237.839844 475.84375 C 237.839844 475.84375 225.226562 501.628906 252.957031 528.230469 C 280.6875 554.839844 286.816406 607.792969 286.816406 607.792969 C 286.816406 607.792969 305.296875 541.054688 289.507812 517.269531 C 289.507812 517.269531 241.261719 479.929688 257.789062 443.894531 C 257.789062 443.894531 247.921875 482.078125 287.632812 506.371094 C 287.632812 506.371094 301.175781 478.910156 289.089844 448.382812 C 289.089844 448.382812 307.128906 475.648438 293.671875 512.125 C 293.671875 512.125 310.167969 543.730469 298.769531 585.765625 C 298.769531 585.765625 309.6875 539.101562 339.644531 531.054688 C 339.644531 531.054688 337.929688 490.355469 364.621094 481.148438 C 364.621094 481.148438 337.929688 499.949219 345.207031 530.484375 C 345.207031 530.484375 376.691406 540.476562 396.960938 513.902344 C 396.960938 513.902344 376.789062 544.609375 342.230469 536.917969 C 342.230469 536.917969 311.027344 544.101562 309.082031 600.734375 C 309.082031 600.734375 325.496094 562.796875 369.425781 562.496094 C 369.425781 562.496094 320.816406 566.734375 310.324219 615.984375 C 310.324219 615.984375 337.601562 583.5625 374.363281 585.402344 C 374.363281 585.402344 411.617188 579.085938 415.566406 551.535156 C 415.566406 551.535156 413.835938 582.746094 377.828125 589.976562 C 377.828125 589.976562 425.925781 594.089844 428.011719 627.335938 C 428.011719 627.335938 419.429688 595.253906 367.925781 596.84375 C 367.925781 596.84375 318.300781 608.210938 317.796875 654.769531 C 317.796875 654.769531 312.757812 761.71875 360.828125 799.464844 C 360.828125 799.464844 385.234375 811.011719 404.179688 812.789062 C 404.179688 812.789062 349.140625 814.066406 326.910156 801.714844 C 326.910156 801.714844 347.222656 813.109375 363.714844 817.621094 C 363.714844 817.621094 318.390625 822.871094 301.605469 801.261719 C 301.605469 801.261719 280.09375 812.585938 265.695312 812.574219 C 265.695312 812.574219 273.855469 808.257812 276.070312 797.601562 C 276.070312 797.601562 248.863281 824.789062 218.050781 814.886719 C 218.050781 814.886719 250.496094 804.378906 255.382812 790.449219 "/>
<path style=" stroke:none;fill-rule:nonzero;fill:rgb(76.078796%,61.959839%,35.688782%);fill-opacity:1;" d="M 289.339844 502.214844 C 288.609375 505.304688 287.667969 508.46875 286.476562 511.710938 C 286.476562 511.710938 287.355469 513.414062 288.566406 516.523438 C 289.167969 517.011719 289.507812 517.269531 289.507812 517.269531 C 295.457031 526.242188 296.542969 541.320312 295.574219 556.617188 C 295.492188 564.324219 294.613281 572.753906 292.5 581.714844 C 292.464844 581.914062 292.429688 582.117188 292.394531 582.3125 C 293.796875 577.4375 294.988281 589.273438 300.664062 579.222656 C 308.585938 541.367188 293.671875 512.125 293.671875 512.125 C 307.128906 475.648438 289.089844 448.382812 289.089844 448.382812 C 298.371094 471.820312 292.542969 493.4375 289.339844 502.214844 "/>
<path style=" stroke:none;fill-rule:nonzero;fill:rgb(76.078796%,61.959839%,35.688782%);fill-opacity:1;" d="M 339.628906 530.503906 C 341.953125 531.0625 346.609375 531.953125 352.445312 531.914062 C 347.996094 531.363281 345.207031 530.484375 345.207031 530.484375 C 337.929688 499.949219 364.621094 481.148438 364.621094 481.148438 C 339.761719 489.726562 339.539062 525.628906 339.628906 530.503906 "/>
<path style=" stroke:none;fill-rule:nonzero;fill:rgb(76.078796%,61.959839%,35.688782%);fill-opacity:1;" d="M 232.308594 509.71875 C 235.0625 515.503906 239.324219 521.640625 245.761719 527.820312 C 273.492188 554.421875 279.621094 607.375 279.621094 607.375 C 279.621094 607.375 284.753906 617.910156 286.816406 607.792969 C 283.394531 585.785156 277.070312 554.566406 252.957031 528.230469 C 227.003906 499.894531 237.839844 475.84375 237.839844 475.84375 C 228.335938 487.753906 229.367188 500.519531 232.308594 509.71875 "/>
<path style=" stroke:none;fill-rule:nonzero;fill:rgb(76.078796%,61.959839%,35.688782%);fill-opacity:1;" d="M 346.839844 537.722656 C 378.574219 541.890625 396.960938 513.902344 396.960938 513.902344 C 388.921875 524.4375 379.125 529.222656 370.226562 531.167969 C 363.847656 534.792969 355.996094 537.574219 346.839844 537.722656 "/>
<path style=" stroke:none;fill-rule:nonzero;fill:rgb(76.078796%,61.959839%,35.688782%);fill-opacity:1;" d="M 309.082031 600.734375 C 309.117188 599.84375 309.152344 598.964844 309.199219 598.105469 C 306.632812 603.183594 304.535156 608.964844 303.132812 615.566406 C 303.132812 615.566406 306.800781 611.222656 313.25 605.796875 C 327.734375 566.128906 369.425781 562.496094 369.425781 562.496094 C 325.496094 562.796875 309.082031 600.734375 309.082031 600.734375 "/>
<path style=" stroke:none;fill-rule:nonzero;fill:rgb(76.078796%,61.959839%,35.688782%);fill-opacity:1;" d="M 415.566406 551.535156 C 413.648438 564.929688 403.851562 573.304688 394.296875 578.378906 C 388.816406 583.246094 381.210938 587.4375 370.632812 589.558594 C 370.632812 589.558594 398.824219 591.964844 412.972656 608.023438 C 425.179688 616.738281 428.011719 627.335938 428.011719 627.335938 C 425.925781 594.089844 377.828125 589.976562 377.828125 589.976562 C 413.835938 582.746094 415.566406 551.535156 415.566406 551.535156 "/>
<path style=" stroke:none;fill-rule:nonzero;fill:rgb(76.078796%,61.959839%,35.688782%);fill-opacity:1;" d="M 301.886719 600.324219 C 301.886719 600.324219 303.441406 605.246094 309.199219 598.105469 C 311.660156 553.773438 334.847656 539.582031 340.621094 537.429688 C 338.800781 537.226562 336.945312 536.925781 335.035156 536.5 C 335.035156 536.5 303.832031 543.683594 301.886719 600.324219 "/>
<path style=" stroke:none;fill-rule:nonzero;fill:rgb(76.078796%,61.959839%,35.688782%);fill-opacity:1;" d="M 265.195312 595.28125 C 264.300781 590.207031 260.195312 570.445312 247.824219 550.175781 C 230.175781 530.460938 212.925781 530.042969 212.925781 530.042969 C 243.683594 542.777344 258.285156 571.832031 265.195312 595.28125 "/>
<path style=" stroke:none;fill-rule:nonzero;fill:rgb(76.078796%,61.959839%,35.688782%);fill-opacity:1;" d="M 317.796875 654.769531 C 318.300781 608.210938 367.925781 596.84375 367.925781 596.84375 C 370.074219 596.773438 372.136719 596.773438 374.144531 596.816406 C 370.03125 596.425781 365.570312 596.28125 360.730469 596.433594 C 360.730469 596.433594 311.109375 607.792969 310.601562 654.363281 C 310.601562 654.363281 305.554688 761.308594 353.632812 799.058594 C 353.632812 799.058594 378.042969 810.605469 396.976562 812.378906 C 396.976562 812.378906 387.9375 812.585938 375.707031 812.015625 C 391.417969 813.082031 404.171875 812.789062 404.171875 812.789062 C 385.234375 811.011719 360.828125 799.464844 360.828125 799.464844 C 312.757812 761.71875 317.796875 654.769531 317.796875 654.769531 "/>
<path style=" stroke:none;fill-rule:nonzero;fill:rgb(76.078796%,61.959839%,35.688782%);fill-opacity:1;" d="M 231.464844 522.339844 C 231.464844 522.339844 229.214844 519.292969 227.050781 514.390625 C 207.269531 502.410156 190.730469 503.113281 190.730469 503.113281 C 191.15625 503.21875 191.566406 503.324219 191.992188 503.429688 C 200.988281 504.90625 216.027344 509.3125 231.464844 522.339844 "/>
<path style=" stroke:none;fill-rule:nonzero;fill:rgb(76.078796%,61.959839%,35.688782%);fill-opacity:1;" d="M 191.40625 614.730469 C 181.394531 618.40625 175.542969 623.417969 175.542969 623.417969 C 187.3125 616.941406 198.324219 614.347656 208.398438 614.304688 C 203.023438 613.675781 197.355469 613.734375 191.40625 614.730469 "/>
<path style=" stroke:none;fill-rule:nonzero;fill:rgb(76.078796%,61.959839%,35.688782%);fill-opacity:1;" d="M 264.148438 629.191406 C 264.148438 629.191406 264.042969 626.257812 263.457031 621.382812 C 224.882812 583.039062 193.441406 579.148438 181.839844 579.222656 C 197.871094 581.050781 228.445312 590.191406 264.148438 629.191406 "/>
<path style=" stroke:none;fill-rule:nonzero;fill:rgb(22.749329%,61.569214%,17.649841%);fill-opacity:1;" d="M 184.789062 622.820312 C 184.789062 622.820312 158.160156 631.597656 175.542969 674.371094 C 175.542969 674.371094 212.617188 653.402344 184.789062 622.820312 "/>
<path style=" stroke:none;fill-rule:nonzero;fill:rgb(22.749329%,61.569214%,17.649841%);fill-opacity:1;" d="M 430.410156 640.488281 C 430.410156 640.488281 403.773438 649.253906 421.164062 692.03125 C 421.164062 692.03125 458.238281 671.058594 430.410156 640.488281 "/>
<path style=" stroke:none;fill-rule:nonzero;fill:rgb(22.749329%,61.569214%,17.649841%);fill-opacity:1;" d="M 169.652344 624.722656 C 169.652344 624.722656 144.199219 612.964844 127.722656 656.085938 C 127.722656 656.085938 169.121094 666.066406 169.652344 624.722656 "/>
<path style=" stroke:none;fill-rule:nonzero;fill:rgb(22.749329%,61.569214%,17.649841%);fill-opacity:1;" d="M 416.484375 619.3125 C 416.484375 619.3125 391.027344 607.546875 374.550781 650.675781 C 374.550781 650.675781 415.949219 660.660156 416.484375 619.3125 "/>
<path style=" stroke:none;fill-rule:nonzero;fill:rgb(22.749329%,61.569214%,17.649841%);fill-opacity:1;" d="M 184.167969 501.140625 C 184.167969 501.140625 158.71875 489.371094 142.234375 532.503906 C 142.234375 532.503906 183.632812 542.484375 184.167969 501.140625 "/>
<path style=" stroke:none;fill-rule:nonzero;fill:rgb(22.749329%,61.569214%,17.649841%);fill-opacity:1;" d="M 176.429688 618.089844 C 176.429688 618.089844 183.730469 591.015625 138.433594 582.054688 C 138.433594 582.054688 135.59375 624.554688 176.429688 618.089844 "/>
<path style=" stroke:none;fill-rule:nonzero;fill:rgb(22.749329%,61.569214%,17.649841%);fill-opacity:1;" d="M 197.96875 577.773438 C 197.96875 577.773438 218.539062 558.703125 184.921875 527.058594 C 184.921875 527.058594 159.9375 561.554688 197.96875 577.773438 "/>
<path style=" stroke:none;fill-rule:nonzero;fill:rgb(22.749329%,61.569214%,17.649841%);fill-opacity:1;" d="M 205.332031 499.675781 C 205.332031 499.675781 225.902344 480.613281 192.277344 448.957031 C 192.277344 448.957031 167.300781 483.457031 205.332031 499.675781 "/>
<path style=" stroke:none;fill-rule:nonzero;fill:rgb(22.749329%,61.569214%,17.649841%);fill-opacity:1;" d="M 292.039062 430.75 C 292.039062 430.75 319.101562 423.402344 303.992188 379.769531 C 303.992188 379.769531 265.863281 398.746094 292.039062 430.75 "/>
<path style=" stroke:none;fill-rule:nonzero;fill:rgb(22.749329%,61.569214%,17.649841%);fill-opacity:1;" d="M 358.757812 479.972656 C 358.757812 479.972656 379.320312 460.914062 345.703125 429.257812 C 345.703125 429.257812 320.71875 463.757812 358.757812 479.972656 "/>
<path style=" stroke:none;fill-rule:nonzero;fill:rgb(22.749329%,61.569214%,17.649841%);fill-opacity:1;" d="M 277.167969 448.761719 C 277.167969 448.761719 297.730469 429.703125 264.113281 398.054688 C 264.113281 398.054688 239.136719 432.554688 277.167969 448.761719 "/>
<path style=" stroke:none;fill-rule:nonzero;fill:rgb(22.749329%,61.569214%,17.649841%);fill-opacity:1;" d="M 255.167969 448.835938 C 255.167969 448.835938 264.867188 422.523438 220.566406 409.519531 C 220.566406 409.519531 213.902344 451.585938 255.167969 448.835938 "/>
<path style=" stroke:none;fill-rule:nonzero;fill:rgb(22.749329%,61.569214%,17.649841%);fill-opacity:1;" d="M 180.25 493.910156 C 180.25 493.910156 189.957031 467.601562 145.65625 454.597656 C 145.65625 454.597656 138.992188 496.664062 180.25 493.910156 "/>
<path style=" stroke:none;fill-rule:nonzero;fill:rgb(22.749329%,61.569214%,17.649841%);fill-opacity:1;" d="M 336.765625 502.171875 C 336.765625 502.171875 346.476562 475.863281 302.179688 462.859375 C 302.179688 462.859375 295.519531 504.921875 336.765625 502.171875 "/>
<path style=" stroke:none;fill-rule:nonzero;fill:rgb(22.749329%,61.569214%,17.649841%);fill-opacity:1;" d="M 168.757812 577.398438 C 168.757812 577.398438 178.457031 551.09375 134.152344 538.089844 C 134.152344 538.089844 127.492188 580.152344 168.757812 577.398438 "/>
<path style=" stroke:none;fill-rule:nonzero;fill:rgb(22.749329%,61.569214%,17.649841%);fill-opacity:1;" d="M 295.953125 453.851562 C 295.953125 453.851562 322.484375 462.9375 334.441406 418.34375 C 334.441406 418.34375 292.226562 412.675781 295.953125 453.851562 "/>
<path style=" stroke:none;fill-rule:nonzero;fill:rgb(22.749329%,61.569214%,17.649841%);fill-opacity:1;" d="M 373.164062 472.121094 C 373.164062 472.121094 399.695312 481.207031 411.652344 436.613281 C 411.652344 436.613281 369.433594 430.945312 373.164062 472.121094 "/>
<path style=" stroke:none;fill-rule:nonzero;fill:rgb(22.749329%,61.569214%,17.649841%);fill-opacity:1;" d="M 424.246094 609.160156 C 424.246094 609.160156 450.777344 618.238281 462.730469 573.644531 C 462.730469 573.644531 420.515625 567.984375 424.246094 609.160156 "/>
<path style=" stroke:none;fill-rule:nonzero;fill:rgb(22.749329%,61.569214%,17.649841%);fill-opacity:1;" d="M 416.714844 511.550781 C 416.714844 511.550781 443.242188 520.625 455.199219 476.03125 C 455.199219 476.03125 412.984375 470.363281 416.714844 511.550781 "/>
<path style=" stroke:none;fill-rule:nonzero;fill:rgb(22.749329%,61.569214%,17.649841%);fill-opacity:1;" d="M 337.878906 427.980469 C 337.878906 427.980469 364.417969 437.066406 376.363281 392.46875 C 376.363281 392.46875 334.15625 386.804688 337.878906 427.980469 "/>
<path style=" stroke:none;fill-rule:nonzero;fill:rgb(22.749329%,61.569214%,17.649841%);fill-opacity:1;" d="M 206.796875 620.449219 C 206.796875 620.449219 183.609375 636.207031 212.082031 672.550781 C 212.082031 672.550781 241.960938 642.203125 206.796875 620.449219 "/>
<path style=" stroke:none;fill-rule:nonzero;fill:rgb(22.749329%,61.569214%,17.649841%);fill-opacity:1;" d="M 368.359375 484.71875 C 368.359375 484.71875 370.535156 512.667969 416.214844 505.972656 C 416.214844 505.972656 404.695312 464.972656 368.359375 484.71875 "/>
<path style=" stroke:none;fill-rule:nonzero;fill:rgb(22.749329%,61.569214%,17.649841%);fill-opacity:1;" d="M 395.511719 525.09375 C 395.511719 525.09375 397.6875 553.054688 443.367188 546.367188 C 443.367188 546.367188 431.847656 505.359375 395.511719 525.09375 "/>
<path style=" stroke:none;fill-rule:nonzero;fill:rgb(22.749329%,61.569214%,17.649841%);fill-opacity:1;" d="M 433.527344 622.164062 C 433.527344 622.164062 435.695312 650.117188 481.382812 643.429688 C 481.382812 643.429688 469.855469 602.421875 433.527344 622.164062 "/>
<path style=" stroke:none;fill-rule:nonzero;fill:rgb(22.749329%,61.569214%,17.649841%);fill-opacity:1;" d="M 210.050781 581.246094 C 210.050781 581.246094 229.296875 587.84375 237.972656 555.46875 C 237.972656 555.46875 207.339844 551.367188 210.050781 581.246094 "/>
<path style=" stroke:none;fill-rule:nonzero;fill:rgb(22.749329%,61.569214%,17.649841%);fill-opacity:1;" d="M 351.101562 529.320312 C 351.101562 529.320312 370.359375 535.914062 379.027344 503.546875 C 379.027344 503.546875 348.394531 499.433594 351.101562 529.320312 "/>
<path style=" stroke:none;fill-rule:nonzero;fill:rgb(22.749329%,61.569214%,17.649841%);fill-opacity:1;" d="M 414.136719 579.734375 C 414.136719 579.734375 433.394531 586.328125 442.0625 553.960938 C 442.0625 553.960938 411.429688 549.855469 414.136719 579.734375 "/>
<path style=" stroke:none;fill-rule:nonzero;fill:rgb(22.749329%,61.569214%,17.649841%);fill-opacity:1;" d="M 373.101562 560.105469 C 373.101562 560.105469 392.359375 566.699219 401.035156 534.332031 C 401.035156 534.332031 370.394531 530.21875 373.101562 560.105469 "/>
<path style=" stroke:none;fill-rule:nonzero;fill:rgb(22.749329%,61.569214%,17.649841%);fill-opacity:1;" d="M 216.835938 480.585938 C 216.835938 480.585938 236.089844 487.175781 244.757812 454.8125 C 244.757812 454.8125 214.125 450.699219 216.835938 480.585938 "/>
<path style=" stroke:none;fill-rule:nonzero;fill:rgb(22.749329%,61.569214%,17.649841%);fill-opacity:1;" d="M 223.761719 456.605469 C 223.761719 456.605469 204.507812 463.195312 195.828125 430.820312 C 195.828125 430.820312 226.460938 426.71875 223.761719 456.605469 "/>
<path style=" stroke:none;fill-rule:nonzero;fill:rgb(22.749329%,61.569214%,17.649841%);fill-opacity:1;" d="M 290.953125 542.582031 C 290.953125 542.582031 271.707031 549.171875 263.03125 516.808594 C 263.03125 516.808594 293.664062 512.695312 290.953125 542.582031 "/>
<path style=" stroke:none;fill-rule:nonzero;fill:rgb(22.749329%,61.569214%,17.649841%);fill-opacity:1;" d="M 216.496094 539.765625 C 216.496094 539.765625 197.242188 546.359375 188.5625 513.992188 C 188.5625 513.992188 219.207031 509.878906 216.496094 539.765625 "/>
<path style=" stroke:none;fill-rule:nonzero;fill:rgb(22.749329%,61.569214%,17.649841%);fill-opacity:1;" d="M 141.597656 620.832031 C 141.597656 620.832031 122.347656 627.414062 113.667969 595.046875 C 113.667969 595.046875 144.304688 590.9375 141.597656 620.832031 "/>
<path style=" stroke:none;fill-rule:nonzero;fill:rgb(22.749329%,61.569214%,17.649841%);fill-opacity:1;" d="M 290.953125 480.585938 C 290.953125 480.585938 271.707031 487.175781 263.03125 454.8125 C 263.03125 454.8125 293.664062 450.699219 290.953125 480.585938 "/>
<path style=" stroke:none;fill-rule:nonzero;fill:rgb(22.749329%,61.569214%,17.649841%);fill-opacity:1;" d="M 328.960938 529.320312 C 328.960938 529.320312 309.703125 535.914062 301.035156 503.546875 C 301.035156 503.546875 331.667969 499.433594 328.960938 529.320312 "/>
<path style=" stroke:none;fill-rule:nonzero;fill:rgb(22.749329%,61.569214%,17.649841%);fill-opacity:1;" d="M 196.28125 611.375 C 196.28125 611.375 177.027344 617.964844 168.347656 585.597656 C 168.347656 585.597656 198.992188 581.484375 196.28125 611.375 "/>
</g>
</svg>
